<?xml version="1.0" encoding="utf-8"?>
<!-- Svg Vector Icons : http://www.onlinewebfonts.com/icon -->
<!DOCTYPE svg PUBLIC "-//W3C//DTD SVG 1.1//EN" "http://www.w3.org/Graphics/SVG/1.1/DTD/svg11.dtd">
<svg version="1.1" xmlns="http://www.w3.org/2000/svg" xmlns:xlink="http://www.w3.org/1999/xlink" x="0px" y="0px" viewBox="0 0 1000 1000" enable-background="new 0 0 1000 1000" xml:space="preserve">
<metadata> Svg Vector Icons : http://www.onlinewebfonts.com/icon </metadata>
<g><g transform="translate(0.000000,511.000000) scale(0.100000,-0.100000)"><path d="M4732.9,4987.3c-654.1-124.3-1157.8-612.7-1293-1255.9c-34.9-161.4-41.4-495-13.1-641l15.3-87.2l-558.2-566.9C1723.9,1256.6,1470.9,909.9,1368.5,364.8c-54.5-287.8-34.9-883.1,41.4-1245c74.1-346.7,181-699.9,314-1024.8l104.7-261.6l-82.9-96c-115.6-130.8-268.2-444.8-311.8-645.4c-52.3-231.1-34.9-656.3,32.7-859.1c139.5-412.1,396.8-717.4,752.2-887.4c303.1-143.9,215.9-139.5,2852-133c2241.5,6.5,2387.6,8.7,2501,48c226.8,74.1,418.6,191.9,577.8,353.2c290,290,423,606.2,442.6,1037.9c6.5,189.7,0,296.5-28.3,425.2c-48,218-172.3,486.2-298.7,641.1l-98.1,119.9l52.3,115.6c104.7,237.7,231.1,610.5,300.9,885.3c181,704.3,189.7,1408.5,24,1846.8c-167.9,444.8-623.6,1029.2-1423.8,1820.7l-488.4,484l26.2,146.1c30.5,176.6,15.3,488.4-34.9,673.8c-146.1,558.2-614.9,1020.4-1168.7,1153.4C5243.1,5015.7,4933.5,5024.4,4732.9,4987.3z M5216.9,4431.3c198.4-30.5,436.1-152.6,577.8-294.4c137.4-137.4,261.7-375,296.6-566.9c39.2-218-13.1-540.7-113.4-706.5c-28.3-45.8-21.8-56.7,111.2-172.3c885.3-776.2,1631-1609.2,1866.4-2086.7c115.6-235.5,146.1-420.8,133-806.8c-24-625.8-250.7-1412.9-573.4-1982c-52.3-95.9-93.8-174.4-91.6-174.4c111.2-39.3,281.3-152.6,351-231.1c283.5-314,338-780.6,137.4-1175.3c-69.8-137.4-233.3-307.4-353.2-368.5c-181-91.6-242-93.8-2647-87.2l-2300.4,6.5l-126.5,58.9c-231.1,109-431.7,364.1-492.8,630.1c-37.1,157-28.3,416.5,17.4,562.6c78.5,248.6,250.8,460.1,460.1,556l106.8,50.1l-78.5,139.6c-270.4,479.7-508,1197.1-573.5,1731.2c-39.2,294.4-17.4,721.7,41.4,909.2c98.1,309.6,438.3,713,1456.5,1740l680.3,689l-56.7,139.5c-67.6,167.9-89.4,429.6-50.1,617.1c80.7,394.7,412.1,723.9,815.5,811.1C4977.1,4457.5,5040.3,4457.5,5216.9,4431.3z"/><path d="M4833.2,3803.4c-176.6-82.9-290-298.7-259.5-492.8c45.8-274.7,292.2-440.5,569.1-383.8c388.1,80.7,492.8,606.2,167.9,837.3C5190.7,3847,4968.3,3866.6,4833.2,3803.4z"/><path d="M4244.4,2146.3C3865,1779.9,3123.7,1010.2,2886,733.3c-257.3-294.4-331.4-407.7-366.3-551.6c-126.5-540.8,209.3-1766.1,649.8-2363.6l106.8-146.1h1722.5h1722.5l100.3,137.4c135.2,183.2,381.6,691.2,477.5,985.6c159.2,486.2,239.8,1057.5,187.5,1327.9c-37.1,202.8-152.6,396.8-457.9,776.2c-383.8,475.3-1471.8,1517.6-1561.2,1495.8c-24-6.5-98.1-26.2-163.5-45.8c-161.3-48-468.8-32.7-632.3,30.5c-65.4,24-124.3,45.8-130.8,43.6C4534.4,2423.2,4401.4,2298.9,4244.4,2146.3z M5304.1,942.7V528.4h359.8h359.8V223.1V-82.1h-359.8h-359.8l-4.4-691.2l-6.5-693.4h-294.3h-294.4l-6.5,693.4l-4.4,691.2h-359.8h-359.8v305.3v305.3h359.8h359.8v414.3v414.3h305.3h305.2V942.7z"/><path d="M2657.1-3003.9c-54.5-65.4-100.3-189.7-100.3-272.5s45.8-207.1,100.3-272.6l56.7-65.4h2285.1h2285.1l56.7,65.4c128.6,152.6,128.6,392.5,0,545.1l-56.7,65.4H4998.9H2713.8L2657.1-3003.9z"/></g></g>
</svg>