<?xml version="1.0" encoding="utf-8"?>
<!-- Svg Vector Icons : http://www.onlinewebfonts.com/icon -->
<!DOCTYPE svg PUBLIC "-//W3C//DTD SVG 1.1//EN" "http://www.w3.org/Graphics/SVG/1.1/DTD/svg11.dtd">
<svg version="1.1" xmlns="http://www.w3.org/2000/svg" xmlns:xlink="http://www.w3.org/1999/xlink" x="0px" y="0px" viewBox="0 0 1000 1000" enable-background="new 0 0 1000 1000" xml:space="preserve">
<metadata> Svg Vector Icons : http://www.onlinewebfonts.com/icon </metadata>
<g><g transform="translate(0.000000,511.000000) scale(0.100000,-0.100000)"><path d="M4832,4991.2c-754.7-126.5-1180.1-951.1-859.5-1666.6l50.2-109.1l-359.9-349c-748.2-726.4-1570.6-1607.7-1854.2-1985c-237.8-318.5-303.2-541-303.2-1025.2c0-338.1,39.3-626.1,137.4-1018.7c122.2-493,213.8-719.8,626-1546.6c2.2-8.7-58.9-45.8-137.4-80.7c-335.9-159.2-556.2-541-556.2-964.2c0-425.4,213.8-791.8,560.6-964.2l148.3-72H5000h2715.8l144,69.8c748.2,368.6,750.4,1583.7,4.4,1932.7c-76.3,34.9-137.4,69.8-133,78.5c4.4,6.6,72,141.8,152.7,296.7c394.8,772.2,608.6,1566.2,610.8,2268.6c0,543.2-82.9,767.8-486.4,1313.2c-375.2,506.1-1217.2,1374.3-1858.5,1915.2l-104.7,89.4l65.4,128.7c82.9,172.3,120,333.7,117.8,534.4c-4.4,338.1-106.9,584.6-342.5,820.2C5599.9,4943.2,5235.6,5058.8,4832,4991.2z M5283.6,4336.8c192-87.3,303.2-242.1,320.7-453.7c21.8-242.1-87.3-445-298.8-554.1c-109.1-56.7-137.4-61.1-287.9-52.4c-218.1,10.9-344.6,82.9-447.2,253c-174.5,292.3-82.9,639.1,209.4,791.8C4928,4400,5133.1,4404.4,5283.6,4336.8z M4633.5,2722.6c257.4-102.5,608.6-100.3,839.8,2.2l96,41.4l266.1-231.2c375.2-327.2,1258.6-1217.2,1481.2-1489.9c226.8-279.2,418.8-558.4,495.2-719.8c54.5-115.6,56.7-135.3,56.7-501.7c-2.2-307.6-10.9-423.2-50.2-602.1c-152.7-706.7-427.6-1363.4-765.7-1825.8l-74.2-102.5H5000H3021.5l-74.2,102.5C2325.6-1751.4,1930.8-207,2197,336.2c115.6,239.9,558.4,732.9,1568.4,1751.6c501.7,503.9,708.9,700.2,732.9,689.3C4515.7,2768.4,4576.8,2744.4,4633.5,2722.6z M7689.6-3424.5c159.2-176.7,154.9-499.5-6.5-660.9l-82.9-82.9H5000H2399.8l-82.9,82.9c-165.8,165.8-168,482.1-6.5,660.9l76.3,85.1H5000h2613.3L7689.6-3424.5z"/><path d="M4694.6,1034.2V543.4h-425.4h-425.4V238V-67.4l421-4.4l418.8-6.5l6.5-800.6l4.4-802.7H5000h305.4l4.4,802.7l6.5,800.6l421,6.5l418.8,4.4V238v305.4h-425.4h-425.4v490.8V1525H5000h-305.4V1034.2z"/></g></g>
</svg>