<?xml version="1.0" encoding="utf-8"?>
<!-- Svg Vector Icons : http://www.onlinewebfonts.com/icon -->
<!DOCTYPE svg PUBLIC "-//W3C//DTD SVG 1.1//EN" "http://www.w3.org/Graphics/SVG/1.1/DTD/svg11.dtd">
<svg version="1.1" xmlns="http://www.w3.org/2000/svg" xmlns:xlink="http://www.w3.org/1999/xlink" x="0px" y="0px" viewBox="0 0 1000 1000" enable-background="new 0 0 1000 1000" xml:space="preserve">
<metadata> Svg Vector Icons : http://www.onlinewebfonts.com/icon </metadata>
<g><g transform="translate(0.000000,511.000000) scale(0.100000,-0.100000)"><path d="M4491.2,4990c-172.1-61-294.2-224.5-305.1-407.5l-6.5-98.1l-102.4-4.4c-141.6-8.7-278.9-93.7-353-222.3c-58.8-100.2-61-111.1-69.7-507.7c-8.7-496.8,10.9-618.9,124.2-745.3c95.9-104.6,185.2-146,320.3-146h98.1v-98.1c0-54.5,13.1-130.8,28.3-170c41.4-95.9,194-228.8,281.1-244.1c39.2-6.5,287.6-10.9,553.5-6.5c466.3,6.5,483.8,8.7,557.9,58.8c119.9,82.8,176.5,183,187.4,331.2l8.7,128.6h87.2c165.6,0,311.6,91.5,390,246.2c41.4,76.3,43.6,122,37.1,590.6l-6.5,507.7l-61,89.3c-74.1,111.1-209.2,185.2-346.5,187.4l-104.6,2.2v89.3c0,163.4-91.5,311.6-241.9,394.4c-65.4,34.9-132.9,39.2-542.6,43.6C4730.9,5011.8,4532.6,5005.2,4491.2,4990z M5360.7,4562.9c6.5-10.9-10.9-152.5-39.2-316c-32.7-200.5-41.4-298.5-26.2-298.5c13.1,0,137.3,19.6,274.6,43.6c137.3,24,268,43.6,289.8,43.6c32.7,0,37.1-32.7,37.1-370.4v-372.6l-69.7,13.1c-468.5,85-540.4,91.5-540.4,56.7c0-19.6,19.6-148.2,43.6-285.5c24-137.3,43.6-263.7,43.6-276.8c0-21.8-89.3-28.3-370.4-28.3c-202.7,0-370.5,6.5-370.5,15.3c0,8.7,19.6,141.6,45.8,296.4c24,154.7,39.2,285.5,32.7,292c-10.9,10.9-320.3-32.7-540.4-74.1l-61-10.9v372.6c0,257.1,6.5,372.6,24,372.6c13.1,0,146-19.6,296.4-45.8c148.2-26.1,276.7-41.4,283.3-34.9c6.5,6.5-8.7,135.1-34.9,283.3c-26.2,150.4-45.8,287.6-45.8,307.3c0,30.5,43.6,34.9,357.4,34.9C5188.5,4580.3,5354.1,4571.6,5360.7,4562.9z"/><path d="M4676.4,2150.6c-241.9-48-518.6-161.3-682.1-276.8l-61-43.6l-113.3,47.9c-897.8,374.8-2065.8,26.2-2691.2-804.1c-647.2-860.8-640.7-1939.4,21.8-2754.4c63.2-76.3,268-320.3,453.3-538.2c185.2-217.9,346.5-409.7,355.2-427.1c8.7-17.5-4.4-98.1-32.7-187.4c-43.6-137.3-50.1-204.8-47.9-485.9c0-294.2,6.5-344.3,58.8-501.2c163.4-492.5,531.7-841.1,985-937c128.6-26.2,472.9-32.7,2113.7-32.7c1211.6,0,2015.7,8.7,2102.9,21.8c226.6,34.9,483.8,172.2,664.6,357.4c407.5,411.8,540.4,1039.4,348.7,1640.9l-52.3,165.6l93.7,111.2c50.1,61,237.5,283.3,416.2,492.5c176.5,209.2,357.4,433.7,398.8,499c122.1,191.8,239.7,459.8,292,669c67.5,272.4,67.5,723.5,2.2,991.5c-211.4,843.3-878.2,1534.1-1708.4,1771.6c-466.3,132.9-930.5,113.3-1383.8-54.5l-117.7-43.6l-65.4,45.8c-132.9,93.7-444.5,222.3-640.7,263.7C5160.2,2189.8,4883.5,2192,4676.4,2150.6z M5330.2,1540.4c185.2-50.1,381.4-159.1,536.1-300.7l143.8-130.7l56.6,37c248.4,159.1,525.2,250.6,799.8,268.1c971.9,58.8,1887.1-804.1,1885-1778.2c0-259.3-41.4-440.2-152.5-666.8c-91.5-187.4-106.8-209.2-788.8-1024.2l-451.1-538.2l74.1-109c109-156.9,165.6-359.6,165.6-586.2c0-215.7-24-326.9-111.1-499c-74.1-143.8-183.1-261.5-322.5-342.1l-102.4-61l-2011.3-6.5c-1338-2.2-2039.7,2.2-2096.3,17.4c-361.7,98.1-618.9,594.9-544.8,1059.1c26.2,163.4,100.2,346.5,187.4,459.8c30.5,41.4,47.9,82.8,39.2,100.2c-8.7,13.1-233.2,285.5-496.8,601.4c-684.2,817.2-699.5,836.8-808.5,1135.3c-52.3,137.3-63.2,207-71.9,440.2c-8.7,250.6-4.4,294.2,47.9,472.9c95.9,335.6,244.1,579.7,496.9,821.5c542.6,518.6,1314,658.1,1946,346.5c85-39.2,178.7-91.5,211.4-111.1l56.7-37l148.2,132.9c152.5,141.6,340,248.4,523,298.5C4833.3,1579.6,5182,1579.6,5330.2,1540.4z"/><path d="M4796.3,936.8c-106.8-39.2-248.4-146-305.1-233.2l-54.5-80.6l261.5-1133.1c143.8-621.1,265.9-1139.7,268-1150.6c4.4-10.9,146,499,316,1133.2L5591.7,623l-54.5,80.6c-58.8,91.5-200.5,196.1-313.8,233.2C5131.9,969.5,4885.6,967.3,4796.3,936.8z"/><path d="M2686.9,758.1c-529.5-178.7-895.6-721.3-821.5-1211.6c37.1-231,141.6-407.5,470.7-795.4c163.4-191.8,440.2-523,614.5-734.4l316-387.9h618.9c337.8,0,616.7,6.5,616.7,17.4c0,8.7-146,640.7-324.7,1407.7C3815.7,594.7,3854.9,483.5,3619.5,638.2C3349.3,814.8,2989.8,862.7,2686.9,758.1z"/><path d="M6705.2,775.5c-161.2-43.6-316-130.7-438-248.4c-98.1-93.7-104.6-111.1-172.1-370.4c-80.6-311.6-651.6-2431.9-669-2488.6c-10.9-37,30.5-39.2,662.4-39.2h673.4l316,387.9c174.3,211.4,451.1,542.6,612.3,734.4c372.6,438,433.7,551.3,446.7,832.4c10.9,246.2-39.2,431.5-172.1,638.5C7677.1,668.7,7156.3,897.6,6705.2,775.5z"/><path d="M3066-3048.9c-80.6-132.9-78.5-359.6,6.5-488.1l37.1-54.5l1900.2,4.4l1900.2,6.5l41.4,85c56.7,115.5,56.7,307.2-2.2,418.4l-43.6,85l-1900.2,6.5l-1898,4.4L3066-3048.9z"/></g></g>
</svg>