<?xml version="1.0" encoding="utf-8"?>
<!-- Svg Vector Icons : http://www.onlinewebfonts.com/icon -->
<!DOCTYPE svg PUBLIC "-//W3C//DTD SVG 1.1//EN" "http://www.w3.org/Graphics/SVG/1.1/DTD/svg11.dtd">
<svg version="1.1" xmlns="http://www.w3.org/2000/svg" xmlns:xlink="http://www.w3.org/1999/xlink" x="0px" y="0px" viewBox="0 0 1000 1000" enable-background="new 0 0 1000 1000" xml:space="preserve">
<metadata> Svg Vector Icons : http://www.onlinewebfonts.com/icon </metadata>
<g><g transform="translate(0.000000,511.000000) scale(0.100000,-0.100000)"><path d="M4450.3,4977.5c-102.5-34.9-224.6-150.4-266-244.2c-17.4-39.2-30.5-126.4-30.5-191.9v-124.3l-63.2,15.3c-159.2,34.9-385.9-93.8-462.2-259.4c-34.9-78.5-41.4-150.4-41.4-603.9c0-492.7,2.2-518.9,50.1-606.1c74.1-143.9,205-226.7,372.8-237.6l139.5-8.7l8.7-137.3c10.9-178.8,87.2-294.3,246.4-370.6l113.4-56.7l525.4,6.5l523.3,6.5l95.9,65.4c126.4,89.4,198.4,222.4,200.6,372.8v117.7h100.3c139.5,0,305.2,87.2,383.7,200.6l63.2,89.4v571.2v571.2l-63.2,89.4c-82.9,122.1-257.3,207.1-394.6,196.2l-98.1-6.5v115.5c0,198.4-139.5,388.1-320.5,438.2C5407.4,5023.2,4555,5014.5,4450.3,4977.5z M5396.5,4526.1c0-15.2-21.8-163.5-48-329.2c-24-163.5-41.4-303.1-37-309.6c6.5-4.4,152.6,15.3,324.8,43.6s320.5,48,331.4,41.4c21.8-13.1,24-793.6,2.2-793.6c-10.9,0-159.2,24-333.6,52.3c-174.4,28.3-320.5,48-324.8,43.6c-4.4-4.4,15.2-154.8,45.8-335.8l54.5-327h-401.2c-366.3,0-399,2.2-399,39.2c0,19.6,19.6,150.4,43.6,287.8c24,137.4,43.6,270.4,43.6,296.5v45.8l-298.7-50.2c-165.7-28.3-314-52.3-327-52.3c-21.8,0-28.3,95.9-28.3,405.5c0,375,2.2,403.3,39.2,392.4c78.5-24,599.6-100.3,610.5-89.4c6.6,4.4-10.9,139.5-37.1,298.7c-26.2,159.2-45.8,307.4-45.8,329.2c0,34.9,32.7,37.1,392.4,37.1C5302.8,4552.3,5396.5,4545.8,5396.5,4526.1z"/><path d="M4670.5,1903.3c-130.8-32.7-337.9-128.6-457.8-209.3c-39.3-26.2-133-111.2-211.5-187.5l-143.9-137.3l-181,106.8c-300.9,181-551.6,259.4-885.2,279.1C1803.5,1809.6,859.5,1077,650.2,93.7c-45.8-218-28.3-645.3,37.1-850.3c61-191.9,194-451.3,311.8-606.1c50.2-65.4,248.6-305.2,442.6-529.8c366.3-431.7,839.4-1002.9,867.7-1048.7c8.7-17.4-10.9-61-50.1-109c-248.5-311.8-294.3-889.5-98.1-1275.4c78.5-157,252.9-333.6,399-403.3l122.1-61h2376.4h2376.5l122.1,61c67.6,32.7,172.2,111.2,233.3,174.4c198.4,211.5,287.8,455.7,287.8,789.3c0,307.4-65.4,510.2-242,745.6l-85,113.4l549.4,658.4c771.8,922.2,793.6,948.4,887.4,1131.5c154.8,298.7,187.5,442.6,187.5,828.5c-2.2,320.5-6.5,348.8-71.9,545.1c-351,1053.1-1460.8,1698.4-2457.1,1430.2c-157-41.4-327-117.7-505.8-224.6l-157-93.7l-150.4,146.1c-172.2,170.1-366.3,292.1-571.2,359.7C5278.8,1933.9,4858,1949.1,4670.5,1903.3z M5311.5,1275.4c65.4-28.3,159.1-78.5,202.7-113.4c106.8-80.7,231.1-244.2,231.1-303.1c0-26.2-87.2-368.5-194-765.3C5444.5-300.9,5272.3-948.4,5165.4-1343c-133-497.1-196.2-704.2-209.3-675.9c-8.7,24-165.7,678-346.7,1456.4C4339.1,603.9,4284.6,861.2,4304.2,904.8c32.7,71.9,211.5,259.4,300.9,314C4794.8,1336.5,5102.2,1360.5,5311.5,1275.4z M2974.3,1118.4c185.3-43.6,446.9-185.3,599.6-324.8L3696,682.4l392.4-1689.7c215.8-926.6,392.4-1696.2,392.4-1704.9c0-8.7-351-17.4-780.5-17.4H2922l-98.1,124.3c-135.2,174.4-689,843.8-1035.6,1249.3c-394.6,466.6-453.5,558.2-525.4,817.6c-39.2,141.7-39.2,427.3,2.2,577.8c165.7,621.4,776.2,1103.2,1406.2,1109.7C2760.6,1149,2898,1135.9,2974.3,1118.4z M7653.1,1092.3c239.8-58.9,460-191.9,678-409.9C8638.6,375,8775.9,67.6,8775.9-318.3c0-372.8-82.8-521.1-675.9-1216.6c-198.4-233.3-501.5-595.2-675.9-808.9l-314-385.9h-835c-638.8,0-835,6.5-835,26.2c0,26.2,793.6,2997.8,874.3,3268.2c39.3,135.2,50.2,152.6,194.1,266C6868.2,1116.3,7227.9,1199.1,7653.1,1092.3z M7356.6-3403.4c122.1-130.8,150.4-429.5,58.8-627.9c-30.5-61-71.9-122.1-98.1-135.2c-30.5-17.4-715.1-24-2263.1-24H2832.6l-50.1,45.8c-139.5,130.8-176.6,436-80.7,643.2c28.3,63.2,69.8,124.3,93.8,137.4c26.2,15.2,723.8,21.8,2269.6,24h2232.6L7356.6-3403.4z"/></g></g>
</svg>