<?xml version="1.0" encoding="utf-8"?>
<!-- Svg Vector Icons : http://www.onlinewebfonts.com/icon -->
<!DOCTYPE svg PUBLIC "-//W3C//DTD SVG 1.1//EN" "http://www.w3.org/Graphics/SVG/1.1/DTD/svg11.dtd">
<svg version="1.1" xmlns="http://www.w3.org/2000/svg" xmlns:xlink="http://www.w3.org/1999/xlink" x="0px" y="0px" viewBox="0 0 1000 1000" enable-background="new 0 0 1000 1000" xml:space="preserve">
<metadata> Svg Vector Icons : http://www.onlinewebfonts.com/icon </metadata>
<g><g transform="translate(0.000000,511.000000) scale(0.100000,-0.100000)"><path d="M5905.3,4978.2c-69.7-17.4-191.7-65.4-265.8-106.7l-139.4-76.3l-187.4,32.7c-498.9,87.1-1119.7,8.7-1638.2-209.1c-1032.6-431.3-1738.4-1333.2-1973.7-2527c-272.3-1381.1,69.7-3474.6,799.5-4903.7c139.4-274.5,159-300.6,222.2-311.5c89.3-17.4,3339.6-4.4,3354.8,13.1c21.8,21.8,666.6,1749.3,666.6,1784.2c0,17.4-93.7,106.7-209.1,196.1c-427,335.5-956.3,938.9-1241.7,1420.4c-339.9,572.9-520.7,1141.5-505.4,1588.1c6.5,204.8,47.9,257.1,69.7,89.3c24-183,74.1-318.1,165.6-446.6c69.7-95.9,117.6-137.3,233.1-193.9c128.5-63.2,165.5-71.9,322.4-69.7c115.4,0,263.6,19.6,435.7,61c305,74.1,664.4,89.3,795.1,37c196.1-80.6,843.1-509.8,936.7-620.9c50.1-63.2,102.4-37,233.1,111.1c383.4,433.5,453.1,572.9,437.9,864.8c-15.3,307.2-165.6,538.1-492.3,758.1c-485.8,328.9-1037,895.3-1402.9,1444.3c-102.4,156.9-226.5,326.8-276.7,379.1l-89.3,95.8l85,113.3c45.7,61,150.3,163.4,228.7,228.7c78.4,63.2,143.8,128.5,143.8,146c0,45.7-89.3,87.1-241.8,113.3C6188.5,5019.6,6068.7,5017.4,5905.3,4978.2z M6003.3,3446.7c89.3-61,156.9-215.7,141.6-318.1c-30.5-193.9-167.7-309.3-346.4-289.7c-320.2,37-387.8,492.3-93.7,629.6C5809.4,3516.4,5916.2,3507.7,6003.3,3446.7z"/><path d="M2127.8-3885.9c-111.1-63.2-215.7-128.5-230.9-143.8c-24-26.1-315.9-716.7-315.9-749.4c0-6.5,1285.3-10.9,2856-10.9c2320,0,2853.8,4.4,2845.1,28.3c-95.9,248.4-289.7,708-307.2,727.6c-13.1,15.3-119.8,80.6-237.4,146l-215.7,122l-2093.5-2.2l-2095.7-2.2L2127.8-3885.9z"/></g></g>
</svg>