<?xml version="1.0" encoding="utf-8"?>
<!-- Svg Vector Icons : http://www.onlinewebfonts.com/icon -->
<!DOCTYPE svg PUBLIC "-//W3C//DTD SVG 1.1//EN" "http://www.w3.org/Graphics/SVG/1.1/DTD/svg11.dtd">
<svg version="1.1" xmlns="http://www.w3.org/2000/svg" xmlns:xlink="http://www.w3.org/1999/xlink" x="0px" y="0px" viewBox="0 0 1000 1000" enable-background="new 0 0 1000 1000" xml:space="preserve">
<metadata> Svg Vector Icons : http://www.onlinewebfonts.com/icon </metadata>
<g><g transform="translate(0.000000,511.000000) scale(0.100000,-0.100000)"><path d="M5905.4,5000.4c-228.8-45.8-298.5-65.4-396.6-109c-104.6-45.8-126.4-47.9-272.4-26.1c-209.2,30.5-668.9,6.5-934.8-45.8c-442.3-89.3-843.2-257.1-1228.9-512c-913-610.1-1453.3-1599.3-1555.8-2852.2c-104.6-1242,191.7-2821.7,740.8-3978.7c69.7-148.2,128.6-276.7,128.6-287.6c0-8.7-100.2-74.1-222.3-141.6c-278.9-154.7-335.6-198.3-387.8-281.1c-24-37-117.7-248.4-209.2-468.5c-141.6-344.3-165.6-422.7-167.8-536c-2.2-161.3,58.8-298.5,180.8-409.7c170-152.5,17.4-146,2998.2-139.4c2564.6,6.5,2680.1,8.7,2754.2,47.9c204.8,106.8,311.6,278.9,313.8,492.4c0,126.4-15.3,180.9-159.1,527.3c-87.2,211.3-187.4,429.2-220.1,483.7c-65.4,100.2-204.8,196.1-560,379.1c-87.2,43.6-159.1,91.5-159.1,104.6c0,13.1,117.7,335.5,259.3,719c143.8,381.3,268,736.5,276.7,784.4c15.3,108.9-34.9,300.7-102.4,387.8c-26.2,32.7-115.5,113.3-202.7,180.9c-370.4,294.2-738.6,699.4-997.9,1096l-150.4,228.8l61,15.3c257.1,61,520.8,111.1,651.5,119.8l154.7,13.1l222.3-139.5c124.2-76.3,298.5-202.6,390-278.9c207-172.1,283.3-204.8,461.9-204.8c217.9-2.2,305,52.3,557.8,348.6c366.1,427.1,468.5,647.1,470.7,1008.8c0,444.5-211.4,804-653.7,1106.9c-394.4,270.2-838.9,721.2-1102.5,1117.8l-126.4,191.7l65.4,56.7c102.4,85,178.7,259.3,178.7,400.9c0,220.1-141.6,431.4-342.1,514.2C6456.6,4985.1,6060.1,5030.9,5905.4,5000.4z M6264.9,4446.9c65.4-13.1,119.8-26.2,124.2-30.5c6.5-4.4-67.6-85-161.3-180.9c-93.7-93.7-185.2-196.1-200.5-228.8c-28.3-56.6-26.2-63.2,58.8-150.3c50.1-50.1,172.1-209.2,268-355.2c98-143.8,246.2-344.3,331.2-444.5c233.1-274.5,636.3-649.3,910.8-845.4c348.6-250.6,457.6-416.2,459.8-699.4c0-104.6-13.1-163.4-56.7-250.6c-58.8-122-394.4-540.4-431.4-540.4c-13.1,0-65.4,37-117.7,85c-124.2,109-422.7,307.2-631.9,420.5c-148.2,78.4-185.2,89.3-353,98c-154.7,8.7-248.4-2.2-518.6-56.7c-377-78.4-416.2-80.6-573.1-32.7c-215.7,63.2-348.6,237.5-400.9,522.9c-30.5,159.1-74.1,211.3-139.5,170c-19.6-13.1-45.8-52.3-54.5-87.2c-17.4-67.5,10.9-416.2,47.9-590.5c109-494.6,427.1-1104.7,832.4-1586.3c174.3-207,577.4-607.9,732.1-727.7c50.1-39.2,91.5-87.2,91.5-109c0-19.6,8.7-45.8,19.6-58.8c10.9-10.9-95.9-326.8-259.3-760.5l-276.7-740.8H4465.1H2963.8l-163.4,326.8c-631.9,1266-917.3,3098.5-673.3,4314.3c193.9,965.3,760.4,1730.1,1586.3,2135.4c505.5,250.6,1074.2,346.4,1566.7,263.7l220.1-37l124.2,69.7C5829.1,4455.6,6033.9,4490.5,6264.9,4446.9z M6613.5-3427.7l207-115.5l132.9-315.9c71.9-172.1,137.3-331.2,146-350.8c13.1-34.9-154.7-37.1-2566.8-37.1c-2052.6,0-2582,6.6-2582,28.3c2.2,13.1,63.2,172.1,137.3,348.6l137.3,324.7l204.8,117.6l207,115.5l1884.8,2.2h1884.8L6613.5-3427.7z"/><path d="M5796.4,3211.5c-139.5-37-228.8-165.6-228.8-326.8c0-141.6,61-237.5,187.4-292c111.1-50.1,198.3-41.4,298.5,28.3c172.1,122,165.6,435.8-10.9,549.1C5983.8,3207.1,5859.6,3228.9,5796.4,3211.5z"/></g></g>
</svg>