<?xml version="1.0" encoding="utf-8"?>
<!-- Svg Vector Icons : http://www.onlinewebfonts.com/icon -->
<!DOCTYPE svg PUBLIC "-//W3C//DTD SVG 1.1//EN" "http://www.w3.org/Graphics/SVG/1.1/DTD/svg11.dtd">
<svg version="1.1" xmlns="http://www.w3.org/2000/svg" xmlns:xlink="http://www.w3.org/1999/xlink" x="0px" y="0px" viewBox="0 0 1000 1000" enable-background="new 0 0 1000 1000" xml:space="preserve">
<metadata> Svg Vector Icons : http://www.onlinewebfonts.com/icon </metadata>
<g><g transform="translate(0.000000,511.000000) scale(0.100000,-0.100000)"><path d="M4720.1,4994.7c-370.2-37-897.2-137.2-943-180.8c-15.2-13.1,228.7-862.4,257-888.5c4.4-4.4,100.2,13.1,211.3,37c853.7,193.8,1735.7,69.7,2467.4-348.4C8289.5,2714.6,8897.1,806.8,8130.5-837.4c-54.4-117.6-100.2-215.6-100.2-220c0-4.3,768.7-444.2,805.8-461.7c8.7-2.2,69.7,111.1,139.4,254.8c335.4,703.4,472.6,1400.3,424.7,2180c-84.9,1380.7-829.7,2637.3-2016.6,3406C6636.5,4805.2,5552,5079.6,4720.1,4994.7z"/><path d="M4524.1,3561.7c-276.6-43.6-548.8-130.7-812.3-257l-237.4-113.3l1204.3-816.7c662-448.6,1258.8-868.9,1328.4-932.1c304.9-278.8,407.2-627.2,311.4-1049.7c-61-267.9-254.8-524.8-485.7-642.4c-54.4-26.1-760-331-1563.6-675.1c-805.8-344.1-1465.6-631.6-1465.6-640.3c0-28.3,374.6-381.1,496.5-468.2l115.4-84.9l-93.6-41.4c-52.3-24-270-122-485.6-217.8c-215.6-95.8-409.4-189.5-431.2-209.1c-26.1-21.8-37-58.8-32.7-100.2c6.5-65.3,28.3-78.4,516.1-317.9l509.6-250.4l-723-686c-520.5-494.4-720.8-699-720.8-733.9c0-26.1,21.8-63.1,47.9-80.6c43.6-30.5,359.3-34.8,2957.4-34.8s2913.8,4.4,2957.4,34.8c104.5,71.9,82.7,100.2-672.9,816.7l-718.7,681.7l507.4,252.6c352.8,174.2,509.6,263.5,513.9,289.6c21.8,115.4,2.2,130.7-518.3,361.5c-274.4,124.1-500.9,233-500.9,241.7c0,8.7,54.5,52.3,119.8,95.8c239.6,159,579.3,520.5,777.5,831.9c237.4,372.4,429,901.6,498.7,1376.3c32.7,233,13.1,808-34.8,1027.9c-211.3,964.7-884.2,1772.7-1781.4,2142.9C5608.6,3570.4,5035.9,3642.3,4524.1,3561.7z"/><path d="M2483.5,3165.4C2433.5,3121.8,676,959.3,617.2,865.6c-32.7-47.9-34.8-63.2-8.7-111.1c74-143.7,1491.8-2018.8,1531-2029.7c43.6-10.9,3377.7,1402.5,3528,1493.9c89.3,54.5,161.2,187.3,187.3,341.9c43.6,270-32.7,429-300.5,622.8C5160,1468.9,2614.2,3189.3,2575,3195.9C2548.9,3202.4,2509.7,3187.1,2483.5,3165.4z M2718.7,2416.2c76.2-52.3,119.8-180.8,89.3-259.2c-30.5-78.4-1108.5-1443.9-1165.1-1474.4c-26.1-15.2-84.9-26.1-130.7-28.3c-148.1,0-267.9,169.9-217.8,307.1c23.9,58.8,971.3,1280.5,1108.5,1428.6c56.6,58.8,84.9,71.9,161.2,71.9C2620.7,2461.9,2679.5,2444.5,2718.7,2416.2z M3308.9,1924c69.7-61,106.7-165.5,84.9-241.7c-24-80.6-686-964.8-749.2-999.6c-26.1-15.2-84.9-26.1-130.7-28.3c-139.4,0-259.2,154.6-224.3,294c19.6,74,699.1,977.8,757.9,1008.3C3115.1,1991.5,3254.5,1974.1,3308.9,1924z M3783.7,1449.3c87.1-45.7,130.7-115.4,130.7-213.4c0-69.7-26.1-124.1-143.7-291.8c-78.4-113.2-174.2-224.3-213.4-248.3c-91.5-58.8-198.2-41.4-285.3,45.7c-52.3,52.3-65.3,84.9-65.3,159c0,78.4,21.8,122,156.8,313.6C3552.8,1477.6,3637.8,1525.5,3783.7,1449.3z M5242.8,861.3c56.6-52.3,93.6-172,76.2-250.4c-6.5-34.8-47.9-93.6-89.3-130.7c-108.9-93.6-220-91.5-331,8.7c-69.7,65.3-80.6,87.1-80.6,172c0,122,61,211.3,163.3,246.1C5066.4,935.3,5184,913.6,5242.8,861.3z"/></g></g>
</svg>