<?xml version="1.0" encoding="utf-8"?>
<!-- Svg Vector Icons : http://www.onlinewebfonts.com/icon -->
<!DOCTYPE svg PUBLIC "-//W3C//DTD SVG 1.1//EN" "http://www.w3.org/Graphics/SVG/1.1/DTD/svg11.dtd">
<svg version="1.1" xmlns="http://www.w3.org/2000/svg" xmlns:xlink="http://www.w3.org/1999/xlink" x="0px" y="0px" viewBox="0 0 1000 1000" enable-background="new 0 0 1000 1000" xml:space="preserve">
<metadata> Svg Vector Icons : http://www.onlinewebfonts.com/icon </metadata>
<g><g transform="translate(0.000000,511.000000) scale(0.100000,-0.100000)"><path d="M5127.8,4999.1c-403-39.2-880.1-143.8-986.9-213.5c-67.5-43.6-124.2-156.9-124.2-250.5c0-58.8,76.3-333.3,196.1-699.3c17.4-56.6,13.1-61-159-126.4c-98-39.2-265.8-119.8-372.5-178.6c-104.6-61-204.8-104.6-217.9-100.2c-15.3,6.5-102.4,61-196.1,122c-198.3,128.5-307.2,163.4-461.9,148.1c-254.9-26.2-239.6-10.9-1274.5-1283.2C1012.6,1779.2,566,1217.1,542,1169.2c-58.8-115.5-61-381.2-4.4-485.8C559.4,644.2,825.2,276,1128-133.6c993.4-1339.8,947.7-1283.2,1074-1350.7c150.3-80.6,291.9-95.9,453.1-47.9l128.5,37l135.1-150.3c76.2-80.6,137.2-156.9,137.2-169.9c2.2-10.9-111.1-69.7-250.5-130.7c-254.9-111.1-342-176.5-409.6-309.4c-71.9-141.6-24-392.1,93.7-496.7c26.2-21.8,180.8-106.8,342-185.2l291.9-141.6l-551.2-520.7c-300.6-285.4-562.1-540.3-575.1-566.4c-43.6-74.1-34.8-285.4,15.3-383.4c47.9-95.9,148.1-178.6,259.3-215.7c95.8-30.5,5683.8-34.9,5794.9-2.2c233.1,65.4,366,294.1,315.9,540.3c-10.9,52.3-143.8,191.7-579.5,605.6l-566.4,540.3l291.9,145.9c322.4,161.2,411.7,239.6,455.3,394.3c30.5,119.8-2.2,278.8-82.8,383.4c-54.5,71.9-143.8,122-516.3,285.4l-108.9,47.9l122,124.2c161.2,165.6,296.3,339.9,422.6,538.1c56.7,89.3,115.5,163.4,128.5,163.4c15.3,0,185.2-54.5,379.1-119.8c507.6-174.3,551.2-159,764.7,281c634,1311.5,529.4,2829.9-281,4034.7c-688.4,1028.3-1784.2,1677.5-3019.5,1795.1C5563.5,5012.2,5295.6,5016.5,5127.8,4999.1z M6125.6,4319.4c642.7-141.6,1204.7-437.9,1668.8-875.8c708-671,1080.5-1527.2,1082.7-2492.3c2.2-461.9-69.7-860.5-224.4-1250.5c-104.6-265.8-76.3-248.3-283.2-176.4c-119.8,39.2-178.7,69.7-174.3,89.3c4.4,17.4,34.9,137.2,69.7,270.1c163.4,631.8,137.2,1315.8-67.5,1899.7c-459.7,1302.8-1690.6,2167.7-3045.6,2137.1l-313.7-6.5l-61,196.1c-32.7,106.7-56.7,198.3-52.3,202.6c4.4,4.4,89.3,21.8,189.5,39.2C5184.5,4395.6,5862,4378.2,6125.6,4319.4z M5683.3,3260.6c1294.1-267.9,2187.3-1466.2,2060.9-2766.7c-67.5-686.2-361.6-1328.9-819.1-1786.4c-167.7-167.8-333.3-287.6-690.6-501.1c-117.6-67.5-213.5-130.7-213.5-139.4c0-6.5,246.2-119.8,544.6-252.7c298.5-130.7,544.6-244,544.6-252.7c0-6.5-211.3-113.3-468.4-237.5c-257.1-122-468.4-230.9-468.4-239.6c0-8.7,287.6-289.7,640.5-623.1l640.5-607.8L6326-4153c-620.9-2.2-1647-2.2-2278.8,0l-1148.1,6.5l640.5,607.8c352.9,335.5,642.7,614.3,644.8,620.9c4.4,6.6-209.1,115.5-470.6,241.8c-261.4,126.3-470.6,235.3-461.9,244c6.5,6.5,248.3,117.6,535.9,246.2c287.6,128.5,529.4,239.6,538.1,246.2c8.7,8.7-124.2,98-294.1,200.4c-211.3,126.3-361.6,235.3-479.3,348.6l-169.9,163.4l1322.4,566.4C5537.4-305.7,6071.1-66,6140.8-13.7c220,156.8,352.9,427,374.7,760.3c21.8,320.2-85,575.1-329,797.4c-63.2,56.6-568.6,411.7-1119.8,786.4c-553.4,376.9-1006.5,690.6-1006.5,701.5c0,21.8,272.3,135.1,446.6,187.4C4853.3,3319.4,5319.5,3334.7,5683.3,3260.6z M3008.1,3164.7c448.8-289.8,2821.2-1917.1,2886.6-1980.3c122-115.5,178.6-265.8,161.2-429.2c-19.6-187.4-102.4-346.4-215.7-411.7c-50.1-30.5-825.7-368.2-1725.4-753.8c-1490.1-640.5-1638.3-699.3-1681.8-671c-43.6,24-1407.3,1847.4-1466.2,1954.1c-10.9,24-21.8,52.3-21.8,65.4c0,24,1792.9,2239.6,1847.4,2285.3C2844.7,3262.8,2864.3,3258.4,3008.1,3164.7z"/><path d="M2772.8,2498.1c-63.2-34.9-1098-1333.3-1130.7-1418.2c-71.9-187.4,176.5-374.7,344.2-259.2c26.1,19.6,283.2,335.5,573,701.5c424.8,538.1,527.2,681.9,535.9,747.2c13.1,100.2-17.4,163.4-108.9,217.9C2903.5,2537.3,2851.2,2539.5,2772.8,2498.1z"/><path d="M3315.3,2012.3c-32.7-19.6-207-237.5-387.8-483.6c-331.1-444.4-331.1-444.4-320.3-542.5c15.3-130.7,89.3-198.2,220-198.2c58.8,0,111.1,15.2,139.4,39.2c24,19.6,191.7,235.3,372.5,479.3c344.2,461.9,361.6,496.7,302.8,625.2C3591.9,2045,3426.4,2084.2,3315.3,2012.3z"/><path d="M3842.5,1546.1c-63.2-34.8-263.6-294.1-329-424.8c-39.2-80.6-41.4-104.6-19.6-172.1c15.3-45.8,52.3-93.7,95.9-119.8c146-89.3,239.6-43.6,409.6,193.9c161.2,228.8,178.6,265.8,161.2,359.5C4134.4,1524.3,3966.7,1609.3,3842.5,1546.1z"/><path d="M5114.8,953.5c-54.5-54.5-74.1-93.7-74.1-146c0-180.8,169.9-298.5,333.3-230.9c235.3,98,159.1,451-98,451C5206.3,1027.6,5173.6,1012.3,5114.8,953.5z"/></g></g>
</svg>