<?xml version="1.0" encoding="utf-8"?>
<!-- Svg Vector Icons : http://www.onlinewebfonts.com/icon -->
<!DOCTYPE svg PUBLIC "-//W3C//DTD SVG 1.1//EN" "http://www.w3.org/Graphics/SVG/1.1/DTD/svg11.dtd">
<svg version="1.1" xmlns="http://www.w3.org/2000/svg" xmlns:xlink="http://www.w3.org/1999/xlink" x="0px" y="0px" viewBox="0 0 1000 1000" enable-background="new 0 0 1000 1000" xml:space="preserve">
<metadata> Svg Vector Icons : http://www.onlinewebfonts.com/icon </metadata>
<g><g transform="translate(0.000000,511.000000) scale(0.100000,-0.100000)"><path d="M4703.5,4988.2c-213.6-41.4-296.4-69.8-490.4-170c-412-211.4-712.8-582-837-1031c-54.5-202.7-67.6-575.4-24-780.3c130.8-638.6,582-1118.2,1214.1-1292.6c194-54.5,673.5-54.5,867.5,0c786.9,215.8,1281.7,902.4,1238.1,1713.2c-15.3,276.8-54.5,433.8-170,667c-265.9,542.7-802.1,885-1436.4,913.3C4938.9,5014.4,4797.3,5005.7,4703.5,4988.2z M5333.5,4343c503.5-156.9,813-684.4,706.2-1207.5c-48-226.7-128.6-385.8-279-540.6c-455.6-466.4-1283.8-394.5-1639.1,141.7c-398.9,601.6-102.5,1434.3,575.4,1615.2C4873.5,4399.7,5163.5,4395.3,5333.5,4343z"/><path d="M1414.4,1470.2c-48-24-113.3-69.8-146-104.6c-30.5-34.9-265.9-444.7-521-911.1c-425-776-464.3-861-473-974.3c-17.4-235.4,52.3-346.6,329.1-527.5c440.3-287.7,913.3-819.6,1286-1440.8c91.6-157,167.8-289.9,167.8-296.5s-43.6-34.9-98.1-63.2c-124.2-65.4-296.4-246.3-368.4-390.2c-252.8-499.2-104.6-1140,329.1-1416.8c220.1-141.7,89.4-135.1,3079.9-135.1c2988.4,0,2862-6.5,3077.8,132.9c523.1,335.7,612.5,1168.3,174.4,1637c-54.5,58.9-146,133-200.5,165.7c-54.5,30.5-102.4,58.8-106.8,61c-10.9,8.7,207.1,390.2,309.5,542.7c355.3,527.5,752,946,1142.2,1201c279,185.3,346.6,294.3,329.1,529.7c-8.7,115.5-47.9,196.2-473,974.3c-255,466.4-494.8,880.6-531.8,917.6c-159.1,170-383.6,178.7-612.5,28.3c-512.2-331.3-1155.2-342.2-1647.9-28.3c-146,93.7-176.5,104.6-311.7,111.2c-137.3,8.7-156.9,4.4-272.5-67.6c-196.2-119.9-335.7-183.1-475.2-220.1c-425-111.2-874.1-41.4-1229.3,189.6c-133,87.2-148.2,91.6-305.2,91.6c-156.9,0-170-4.4-333.5-106.8c-507.9-318.2-1122.5-305.2-1647.9,34.9C1715.2,1515.9,1558.2,1537.7,1414.4,1470.2z M4067.1,735.6c340-163.5,488.3-194,932.9-194c444.6,0,597.2,32.7,930.7,194l200.5,98.1l161.3-82.8c178.7-91.6,392.3-163.5,590.7-198.3c183.1-32.7,590.7-30.5,780.3,6.5c178.7,34.9,486.1,141.7,601.6,209.2c41.4,26.2,78.5,43.6,80.7,39.2c8.7-8.7,710.6-1290.4,714.9-1305.6c2.2-6.5-78.5-76.3-180.9-152.6C8356.7-1043,7766-1775.4,7423.8-2451.1l-146-289.9H5000H2722.2l-137.3,274.7c-346.6,682.2-941.6,1419-1466.9,1817.9C1017.6-572.2,937-504.6,939.2-495.9c4.4,17.4,701.9,1292.6,712.8,1301.3c4.4,4.4,50.1-17.4,102.5-45.8C2029,604.8,2369.1,526.4,2744,526.4c370.6,0,699.7,78.5,991.8,239.8c65.4,37.1,122.1,67.6,124.2,67.6C3860,833.7,3953.7,790.1,4067.1,735.6z M7800.9-3449.4c128.6-135.1,150.4-368.4,54.5-555.8c-85-165.7,167.8-152.6-2855.4-152.6c-3023.3,0-2770.4-13.1-2855.4,152.6c-95.9,187.4-74.1,420.7,54.5,555.8l69.8,76.3H5000h2731.2L7800.9-3449.4z"/></g></g>
</svg>