<?xml version="1.0" encoding="utf-8"?>
<!-- Svg Vector Icons : http://www.onlinewebfonts.com/icon -->
<!DOCTYPE svg PUBLIC "-//W3C//DTD SVG 1.1//EN" "http://www.w3.org/Graphics/SVG/1.1/DTD/svg11.dtd">
<svg version="1.1" xmlns="http://www.w3.org/2000/svg" xmlns:xlink="http://www.w3.org/1999/xlink" x="0px" y="0px" viewBox="0 0 1000 1000" enable-background="new 0 0 1000 1000" xml:space="preserve">
<metadata> Svg Vector Icons : http://www.onlinewebfonts.com/icon </metadata>
<g><g transform="translate(0.000000,511.000000) scale(0.100000,-0.100000)"><path d="M4754.2,4996.6c-355.7-65.5-597.9-187.7-837.9-425.5c-294.6-292.4-421.1-582.6-440.8-1014.7c-8.7-209.5-2.2-283.7,37.1-436.4c115.6-464.8,373.1-783.4,798.6-992.8c844.5-414.6,1850.4-2.2,2145,877.2c50.2,152.7,56.7,205.1,56.7,486.6c0,290.2-4.4,331.7-58.9,491c-165.8,475.7-534.6,829.2-1008.1,966.7C5251.7,5003.1,4920,5027.1,4754.2,4996.6z"/><path d="M1350.2,1337.3c-17.5-21.8-240-416.8-495.3-879.4C390.1-388.8,357.3-467.3,422.8-550.2c13.1-19.6,80.7-67.6,146.2-109.1c471.3-296.8,1045.2-925.2,1442.4-1579.8c144-233.5,346.9-643.7,375.3-752.8c10.9-41.5,58.9-41.5,2611.9-37.1l2598.8,6.5l61.1,154.9C7964-2082.1,8804.1-1039,9450-644.1c124.4,74.2,152.7,111.3,152.7,194.2c0,43.6-148.4,336-462.6,907.8c-253.1,462.6-475.7,857.5-493.1,879.4c-52.4,61.1-124.4,43.6-329.5-80.7c-615.3-371-1379.1-357.9-1979.1,32.7c-72,45.8-146.2,85.1-161.5,85.1c-15.3,0-89.5-39.3-161.5-85.1c-327.3-213.8-600.1-292.4-1016.9-292.4c-235.7,0-329.5,8.7-469.2,48c-189.8,50.2-462.6,172.4-567.3,250.9c-117.8,89.5-154.9,89.5-281.5,6.6c-626.3-414.6-1392.2-425.5-2031.5-26.2C1478.9,1380.9,1402.5,1396.2,1350.2,1337.3z"/><path d="M2046.3-3653.1c-226.9-82.9-386.2-303.3-386.2-538.9c0-242.2,102.6-419,307.7-532.4l117.8-65.5h2913.1h2913.1l115.6,63.3c379.7,211.6,419,726.6,74.2,988.5c-50.2,39.3-128.8,80.7-174.6,93.8c-54.6,13.1-1034.3,21.8-2939.3,21.8C2652.9-3624.8,2113.9-3629.1,2046.3-3653.1z"/></g></g>
</svg>