<?xml version="1.0" encoding="utf-8"?>
<!-- Svg Vector Icons : http://www.onlinewebfonts.com/icon -->
<!DOCTYPE svg PUBLIC "-//W3C//DTD SVG 1.1//EN" "http://www.w3.org/Graphics/SVG/1.1/DTD/svg11.dtd">
<svg version="1.1" xmlns="http://www.w3.org/2000/svg" xmlns:xlink="http://www.w3.org/1999/xlink" x="0px" y="0px" viewBox="0 0 1000 1000" enable-background="new 0 0 1000 1000" xml:space="preserve">
<metadata> Svg Vector Icons : http://www.onlinewebfonts.com/icon </metadata>
<g><g transform="translate(0.000000,511.000000) scale(0.100000,-0.100000)"><path d="M1697.1,4983.9c-34.9-13.1-95.8-52.3-132.9-87.1c-128.5-119.8-128.5-148.1-41.4-1150.2c69.7-803.8,82.8-912.7,126.3-991.1c39.2-71.9,124.2-137.2,483.6-372.5c239.6-156.8,468.3-313.7,507.5-346.4l69.7-58.8V1492c0-466.2,2.2-485.8,50.1-557.7c41.4-63.2,150.3-154.7,211.3-176.4c13.1-4.3-178.6-3088.9-193.9-3125.9c-2.2-4.4-82.8-6.5-180.8-6.5c-198.2,0-287.5-34.8-355.1-139.4c-26.1-39.2-65.4-309.3-146-1032.5l-111.1-975.9l41.4-85c21.8-45.7,69.7-104.6,102.4-128.5c61-45.7,71.9-45.7,2840.6-52.3c2736-4.4,2781.7-4.4,2868.9,39.2c102.4,47.9,167.7,143.8,169.9,246.1c0,39.2-47.9,490.1-108.9,1002c-78.4,666.6-119.8,947.6-143.8,984.6c-65.3,100.2-139.4,130.7-348.5,141.6l-198.2,10.9L7105.9-806.2c-56.6,875.7-93.7,1559.7-82.8,1564c58.8,21.8,167.7,113.3,211.3,176.4c47.9,71.9,50.1,91.5,50.1,557.7v481.4l61,56.6c32.7,30.5,257,185.2,501,344.2c361.6,237.4,450.9,305,494.5,379c47.9,82.8,56.6,156.8,130.7,999.9c43.6,501,71.9,941,65.4,975.9c-19.6,89.3-113.3,193.9-217.8,239.6c-78.4,37-156.8,41.4-849.6,41.4c-435.7,0-795.1-8.7-838.7-21.8c-89.3-24-204.8-132.9-237.4-224.4c-13.1-34.9-24-198.2-24-366v-302.8h-98h-98v318c0,287.5-4.4,326.7-47.9,405.2c-26.1,45.7-82.8,106.7-126.3,132.9c-76.2,47.9-85,47.9-1034.7,47.9h-958.5l-82.8-52.3c-141.6-87.1-167.7-169.9-167.7-535.9v-315.9h-108.9h-108.9v309.3c0,359.4-30.5,457.5-169.9,544.6c-80.6,50.1-89.3,50.1-843,54.5C2028.3,5005.6,1740.7,4999.1,1697.1,4983.9z M2927.9,4036.3c0-302.8,4.4-352.9,43.6-413.9c87.1-143.8,104.6-148.1,675.3-148.1c570.7,0,588.1,4.4,675.3,148.1c39.2,61,43.6,111.1,43.6,413.9v342h599h599v-342c0-302.8,4.4-352.9,43.6-413.9c87.1-143.8,106.7-148.1,666.6-148.1c477.1,0,509.7,2.2,566.4,45.8c141.6,104.6,150.3,132.9,159,511.9l6.5,346.4h444.4h444.4v-69.7c-2.2-185.2-104.6-1219.9-122-1237.3c-10.9-8.7-200.4-137.2-418.2-281l-400.8-263.6H4997.3H3039L2625.1,2799c-302.8,196-418.2,285.4-424.8,320.2c-13.1,63.2-100.2,1117.5-100.2,1200.3v58.8H2514h413.9V4036.3z M6674.6,1666.3v-250.5H4997.3H3320v250.5v250.5h1677.3h1677.3V1666.3z M6483-740.8c56.6-845.2,98-1548.8,93.7-1561.9c-6.5-21.8-344.2-28.3-1592.4-28.3H3402.8l15.3,159c19.6,250.5,185.2,2797,185.2,2879.8c0,67.5,6.5,74.1,71.9,80.6c37,4.4,662.2,8.7,1387.6,6.5h1317.9L6483-740.8z M7219.2-3021.5c0-41.4,100.2-917.1,119.8-1056.5l10.9-82.8H4997.3H2644.7l10.9,82.8c19.6,132.9,119.8,1026,119.8,1060.9c0,28.3,252.7,32.7,2221.9,32.7C7099.4-2984.5,7219.2-2986.7,7219.2-3021.5z"/></g></g>
</svg>