<?xml version="1.0" encoding="utf-8"?>
<!-- Svg Vector Icons : http://www.onlinewebfonts.com/icon -->
<!DOCTYPE svg PUBLIC "-//W3C//DTD SVG 1.1//EN" "http://www.w3.org/Graphics/SVG/1.1/DTD/svg11.dtd">
<svg version="1.1" xmlns="http://www.w3.org/2000/svg" xmlns:xlink="http://www.w3.org/1999/xlink" x="0px" y="0px" viewBox="0 0 1000 1000" enable-background="new 0 0 1000 1000" xml:space="preserve">
<metadata> Svg Vector Icons : http://www.onlinewebfonts.com/icon </metadata>
<g><g transform="translate(0.000000,511.000000) scale(0.100000,-0.100000)"><path d="M2005.9,4981.5c-365.9-91.5-642.4-387.6-707.8-764.4c-32.7-196,106.7-1779.2,172-1946.9c102.4-254.8,204.7-361.5,612-638.1l300.5-202.5l8.7-337.5c8.7-363.7,28.3-442.1,161.2-635.9l56.6-80.6l-56.6-866.7c-30.5-476.9-56.6-899.4-56.6-936.4c0-61-13.1-78.4-89.3-117.6c-187.3-93.6-346.3-283.1-422.5-498.7c-19.6-52.3-78.4-494.4-135-980c-84.9-749.2-95.8-901.6-76.2-1014.8c58.8-357.2,339.7-649,696.9-725.2c161.2-34.8,4897.7-34.8,5061.1,0c285.3,61,511.8,237.4,633.7,492.2c63.2,135,69.7,167.7,69.7,355c0,226.5-169.9,1729.1-209.1,1851.1c-69.7,215.6-217.8,400.7-405.1,505.2c-84.9,47.9-115.4,78.4-115.4,111.1c0,26.1-26.1,446.4-56.6,934.2l-58.8,884.2l69.7,108.9c126.3,198.2,154.6,315.8,154.6,657.7v307.1l289.6,185.1c409.4,267.9,540.1,402.9,629.4,657.7c61,174.2,200.4,1779.2,169.9,1946.9c-56.6,289.6-243.9,540.1-500.9,666.4c-219.9,106.7-317.9,117.6-1141.1,108.9c-646.8-8.7-755.7-13.1-845-47.9c-100.2-37-108.9-37-217.8,2.2c-104.5,34.8-198.2,39.2-1019.2,39.2c-816.7,0-916.8-4.4-1036.6-41.4c-128.5-39.2-135-39.2-239.6,0c-93.6,37-189.5,41.4-847.1,45.7C2321.7,5007.6,2084.3,5001.1,2005.9,4981.5z M3556.5,4315.1c117.6-69.7,137.2-137.2,137.2-457.3v-283.1h119.8h119.8v274.4c0,311.4,26.1,398.5,139.4,468.2c63.2,39.2,124.1,41.4,895,41.4c792.7,0,829.7-2.2,899.4-43.6c111.1-67.5,135-154.6,135-468.2v-272.2h108.9h108.9v246.1c0,298.4,21.8,383.3,121.9,470.4l76.2,67.5h723c683.8,0,727.4-2.2,794.9-43.6c39.2-24,87.1-78.4,106.7-119.8c34.8-71.9,32.7-115.4-24-788.3c-74-884.1-82.7-934.2-163.3-1017c-34.8-34.8-243.9-180.8-463.9-326.7l-398.5-263.5L6982,1349c-13.1-505.2-19.6-533.5-182.9-614.1l-80.6-39.2l13.1-145.9c21.8-252.6,163.3-2441.2,163.3-2541.4v-95.8h182.9c189.4,0,263.5-30.5,315.8-128.5c13.1-21.8,56.6-355,100.2-744.8c43.6-387.7,89.3-766.6,100.2-838.4c19.6-111.1,17.4-145.9-10.9-200.4c-74-145.9,117.6-135-2567.5-135c-2645.9,0-2524-6.5-2580.6,119.8c-15.2,30.5-26.1,89.3-26.1,130.7c0,139.4,174.2,1626.8,196,1666c52.3,98,128.5,130.7,307.1,130.7h169.9l10.9,71.9c6.5,37,45.7,622.9,89.3,1300.1c41.4,677.3,80.6,1271.8,87.1,1321.9c8.7,87.1,6.5,91.5-71.9,130.7c-43.6,21.8-102.4,71.9-128.5,113.2c-47.9,69.7-50.1,93.7-50.1,490c0,228.7-8.7,426.8-17.4,439.9c-8.7,13.1-206.9,152.4-439.9,307.1c-283.1,189.5-437.7,307.1-463.8,352.8c-30.5,54.4-52.3,224.3-108.9,871.1c-65.3,768.7-65.3,807.9-30.5,882c19.6,43.6,67.5,98,106.7,122c67.5,41.4,111.1,43.6,747,43.6C3443.2,4358.7,3491.1,4356.5,3556.5,4315.1z"/><path d="M2430.6,3864.3c-2.2-10.9,19.6-278.7,47.9-596.7l47.9-579.3l372.4-243.9l372.4-241.7h1731.3h1729.1l370.2,246.1l370.2,243.9l47.9,533.5c26.1,294,47.9,559.7,47.9,594.5l2.2,58.8h-424.7h-424.7v-298.4c0-333.2-13.1-381.1-128.5-457.3c-69.7-47.9-93.6-50.1-463.8-50.1c-592.4,0-605.4,10.9-605.4,500.9v304.9h-555.3h-555.3v-322.3c0-476.9-8.7-483.5-598.9-483.5c-585.8,0-598.9,10.9-598.9,500.9v304.9h-392C2607,3879.6,2430.6,3873,2430.6,3864.3z"/><path d="M3497.7,1473.2v-250.4h1502.6h1504.8l-6.5,246.1l-6.5,243.9l-1496.1,6.5l-1498.3,4.4V1473.2z"/><path d="M3759,717.5c0-15.2-39.2-620.7-87.1-1345.8c-47.9-725.2-87.1-1339.3-87.1-1365.4v-50.1h1415.5c1213,0,1415.5,4.4,1415.5,30.5c0,17.4-39.2,622.8-87.1,1343.7c-47.9,723-87.1,1334.9-87.1,1363.3v50.1H5000.3C4022.5,743.6,3759,737.1,3759,717.5z"/><path d="M3031.6-2614.4c-6.5-28.3-32.7-241.7-56.6-474.7c-26.1-233-52.3-457.3-58.8-494.3l-10.9-71.9h2092.8h2095l-10.9,71.9c-6.5,37-32.7,250.4-56.6,472.6c-24,222.1-50.1,435.5-56.6,474.7l-10.9,69.7H5000.3h-1960L3031.6-2614.4z"/></g></g>
</svg>